%TF.GenerationSoftware,KiCad,Pcbnew,5.1.10-88a1d61d58~88~ubuntu20.04.1*%
%TF.CreationDate,2021-06-23T17:02:21-05:00*%
%TF.ProjectId,nes-expansion-port,6e65732d-6578-4706-916e-73696f6e2d70,rev?*%
%TF.SameCoordinates,Original*%
%TF.FileFunction,Legend,Top*%
%TF.FilePolarity,Positive*%
%FSLAX46Y46*%
G04 Gerber Fmt 4.6, Leading zero omitted, Abs format (unit mm)*
G04 Created by KiCad (PCBNEW 5.1.10-88a1d61d58~88~ubuntu20.04.1) date 2021-06-23 17:02:21*
%MOMM*%
%LPD*%
G01*
G04 APERTURE LIST*
%ADD10C,0.150000*%
%ADD11C,0.120000*%
%ADD12C,0.500000*%
%ADD13O,1.700000X1.700000*%
%ADD14R,1.700000X1.700000*%
%ADD15R,1.524000X12.000000*%
G04 APERTURE END LIST*
D10*
X166229142Y-81723142D02*
X166872000Y-81723142D01*
X167000571Y-81766000D01*
X167086285Y-81851714D01*
X167129142Y-81980285D01*
X167129142Y-82066000D01*
X167129142Y-80866000D02*
X167129142Y-81294571D01*
X166229142Y-81294571D01*
X167043428Y-80051714D02*
X167086285Y-80094571D01*
X167129142Y-80223142D01*
X167129142Y-80308857D01*
X167086285Y-80437428D01*
X167000571Y-80523142D01*
X166914857Y-80566000D01*
X166743428Y-80608857D01*
X166614857Y-80608857D01*
X166443428Y-80566000D01*
X166357714Y-80523142D01*
X166272000Y-80437428D01*
X166229142Y-80308857D01*
X166229142Y-80223142D01*
X166272000Y-80094571D01*
X166314857Y-80051714D01*
X166229142Y-79408857D02*
X166872000Y-79408857D01*
X167000571Y-79451714D01*
X167086285Y-79537428D01*
X167129142Y-79666000D01*
X167129142Y-79751714D01*
X167129142Y-78551714D02*
X167129142Y-78980285D01*
X166229142Y-78980285D01*
X167043428Y-77737428D02*
X167086285Y-77780285D01*
X167129142Y-77908857D01*
X167129142Y-77994571D01*
X167086285Y-78123142D01*
X167000571Y-78208857D01*
X166914857Y-78251714D01*
X166743428Y-78294571D01*
X166614857Y-78294571D01*
X166443428Y-78251714D01*
X166357714Y-78208857D01*
X166272000Y-78123142D01*
X166229142Y-77994571D01*
X166229142Y-77908857D01*
X166272000Y-77780285D01*
X166314857Y-77737428D01*
X166229142Y-77094571D02*
X166872000Y-77094571D01*
X167000571Y-77137428D01*
X167086285Y-77223142D01*
X167129142Y-77351714D01*
X167129142Y-77437428D01*
X167129142Y-76237428D02*
X167129142Y-76666000D01*
X166229142Y-76666000D01*
X167043428Y-75423142D02*
X167086285Y-75466000D01*
X167129142Y-75594571D01*
X167129142Y-75680285D01*
X167086285Y-75808857D01*
X167000571Y-75894571D01*
X166914857Y-75937428D01*
X166743428Y-75980285D01*
X166614857Y-75980285D01*
X166443428Y-75937428D01*
X166357714Y-75894571D01*
X166272000Y-75808857D01*
X166229142Y-75680285D01*
X166229142Y-75594571D01*
X166272000Y-75466000D01*
X166314857Y-75423142D01*
X166229142Y-74780285D02*
X166872000Y-74780285D01*
X167000571Y-74823142D01*
X167086285Y-74908857D01*
X167129142Y-75037428D01*
X167129142Y-75123142D01*
X167129142Y-73923142D02*
X167129142Y-74351714D01*
X166229142Y-74351714D01*
X167043428Y-73108857D02*
X167086285Y-73151714D01*
X167129142Y-73280285D01*
X167129142Y-73366000D01*
X167086285Y-73494571D01*
X167000571Y-73580285D01*
X166914857Y-73623142D01*
X166743428Y-73666000D01*
X166614857Y-73666000D01*
X166443428Y-73623142D01*
X166357714Y-73580285D01*
X166272000Y-73494571D01*
X166229142Y-73366000D01*
X166229142Y-73280285D01*
X166272000Y-73151714D01*
X166314857Y-73108857D01*
X145064380Y-38311619D02*
X145064380Y-39311619D01*
X144492952Y-38311619D01*
X144492952Y-39311619D01*
X144016761Y-38835428D02*
X143683428Y-38835428D01*
X143540571Y-38311619D02*
X144016761Y-38311619D01*
X144016761Y-39311619D01*
X143540571Y-39311619D01*
X143159619Y-38359238D02*
X143016761Y-38311619D01*
X142778666Y-38311619D01*
X142683428Y-38359238D01*
X142635809Y-38406857D01*
X142588190Y-38502095D01*
X142588190Y-38597333D01*
X142635809Y-38692571D01*
X142683428Y-38740190D01*
X142778666Y-38787809D01*
X142969142Y-38835428D01*
X143064380Y-38883047D01*
X143112000Y-38930666D01*
X143159619Y-39025904D01*
X143159619Y-39121142D01*
X143112000Y-39216380D01*
X143064380Y-39264000D01*
X142969142Y-39311619D01*
X142731047Y-39311619D01*
X142588190Y-39264000D01*
X141397714Y-38835428D02*
X141064380Y-38835428D01*
X140921523Y-38311619D02*
X141397714Y-38311619D01*
X141397714Y-39311619D01*
X140921523Y-39311619D01*
X140588190Y-38311619D02*
X140064380Y-38978285D01*
X140588190Y-38978285D02*
X140064380Y-38311619D01*
X139683428Y-38978285D02*
X139683428Y-37978285D01*
X139683428Y-38930666D02*
X139588190Y-38978285D01*
X139397714Y-38978285D01*
X139302476Y-38930666D01*
X139254857Y-38883047D01*
X139207238Y-38787809D01*
X139207238Y-38502095D01*
X139254857Y-38406857D01*
X139302476Y-38359238D01*
X139397714Y-38311619D01*
X139588190Y-38311619D01*
X139683428Y-38359238D01*
X138350095Y-38311619D02*
X138350095Y-38835428D01*
X138397714Y-38930666D01*
X138492952Y-38978285D01*
X138683428Y-38978285D01*
X138778666Y-38930666D01*
X138350095Y-38359238D02*
X138445333Y-38311619D01*
X138683428Y-38311619D01*
X138778666Y-38359238D01*
X138826285Y-38454476D01*
X138826285Y-38549714D01*
X138778666Y-38644952D01*
X138683428Y-38692571D01*
X138445333Y-38692571D01*
X138350095Y-38740190D01*
X137873904Y-38978285D02*
X137873904Y-38311619D01*
X137873904Y-38883047D02*
X137826285Y-38930666D01*
X137731047Y-38978285D01*
X137588190Y-38978285D01*
X137492952Y-38930666D01*
X137445333Y-38835428D01*
X137445333Y-38311619D01*
X137016761Y-38359238D02*
X136921523Y-38311619D01*
X136731047Y-38311619D01*
X136635809Y-38359238D01*
X136588190Y-38454476D01*
X136588190Y-38502095D01*
X136635809Y-38597333D01*
X136731047Y-38644952D01*
X136873904Y-38644952D01*
X136969142Y-38692571D01*
X137016761Y-38787809D01*
X137016761Y-38835428D01*
X136969142Y-38930666D01*
X136873904Y-38978285D01*
X136731047Y-38978285D01*
X136635809Y-38930666D01*
X136159619Y-38311619D02*
X136159619Y-38978285D01*
X136159619Y-39311619D02*
X136207238Y-39264000D01*
X136159619Y-39216380D01*
X136112000Y-39264000D01*
X136159619Y-39311619D01*
X136159619Y-39216380D01*
X135540571Y-38311619D02*
X135635809Y-38359238D01*
X135683428Y-38406857D01*
X135731047Y-38502095D01*
X135731047Y-38787809D01*
X135683428Y-38883047D01*
X135635809Y-38930666D01*
X135540571Y-38978285D01*
X135397714Y-38978285D01*
X135302476Y-38930666D01*
X135254857Y-38883047D01*
X135207238Y-38787809D01*
X135207238Y-38502095D01*
X135254857Y-38406857D01*
X135302476Y-38359238D01*
X135397714Y-38311619D01*
X135540571Y-38311619D01*
X134778666Y-38978285D02*
X134778666Y-38311619D01*
X134778666Y-38883047D02*
X134731047Y-38930666D01*
X134635809Y-38978285D01*
X134492952Y-38978285D01*
X134397714Y-38930666D01*
X134350095Y-38835428D01*
X134350095Y-38311619D01*
X133112000Y-38311619D02*
X133112000Y-39311619D01*
X132731047Y-39311619D01*
X132635809Y-39264000D01*
X132588190Y-39216380D01*
X132540571Y-39121142D01*
X132540571Y-38978285D01*
X132588190Y-38883047D01*
X132635809Y-38835428D01*
X132731047Y-38787809D01*
X133112000Y-38787809D01*
X131969142Y-38311619D02*
X132064380Y-38359238D01*
X132112000Y-38406857D01*
X132159619Y-38502095D01*
X132159619Y-38787809D01*
X132112000Y-38883047D01*
X132064380Y-38930666D01*
X131969142Y-38978285D01*
X131826285Y-38978285D01*
X131731047Y-38930666D01*
X131683428Y-38883047D01*
X131635809Y-38787809D01*
X131635809Y-38502095D01*
X131683428Y-38406857D01*
X131731047Y-38359238D01*
X131826285Y-38311619D01*
X131969142Y-38311619D01*
X131207238Y-38311619D02*
X131207238Y-38978285D01*
X131207238Y-38787809D02*
X131159619Y-38883047D01*
X131112000Y-38930666D01*
X131016761Y-38978285D01*
X130921523Y-38978285D01*
X130731047Y-38978285D02*
X130350095Y-38978285D01*
X130588190Y-39311619D02*
X130588190Y-38454476D01*
X130540571Y-38359238D01*
X130445333Y-38311619D01*
X130350095Y-38311619D01*
X128921523Y-38835428D02*
X128778666Y-38787809D01*
X128731047Y-38740190D01*
X128683428Y-38644952D01*
X128683428Y-38502095D01*
X128731047Y-38406857D01*
X128778666Y-38359238D01*
X128873904Y-38311619D01*
X129254857Y-38311619D01*
X129254857Y-39311619D01*
X128921523Y-39311619D01*
X128826285Y-39264000D01*
X128778666Y-39216380D01*
X128731047Y-39121142D01*
X128731047Y-39025904D01*
X128778666Y-38930666D01*
X128826285Y-38883047D01*
X128921523Y-38835428D01*
X129254857Y-38835428D01*
X128254857Y-38311619D02*
X128254857Y-38978285D01*
X128254857Y-38787809D02*
X128207238Y-38883047D01*
X128159619Y-38930666D01*
X128064380Y-38978285D01*
X127969142Y-38978285D01*
X127254857Y-38359238D02*
X127350095Y-38311619D01*
X127540571Y-38311619D01*
X127635809Y-38359238D01*
X127683428Y-38454476D01*
X127683428Y-38835428D01*
X127635809Y-38930666D01*
X127540571Y-38978285D01*
X127350095Y-38978285D01*
X127254857Y-38930666D01*
X127207238Y-38835428D01*
X127207238Y-38740190D01*
X127683428Y-38644952D01*
X126350095Y-38311619D02*
X126350095Y-38835428D01*
X126397714Y-38930666D01*
X126492952Y-38978285D01*
X126683428Y-38978285D01*
X126778666Y-38930666D01*
X126350095Y-38359238D02*
X126445333Y-38311619D01*
X126683428Y-38311619D01*
X126778666Y-38359238D01*
X126826285Y-38454476D01*
X126826285Y-38549714D01*
X126778666Y-38644952D01*
X126683428Y-38692571D01*
X126445333Y-38692571D01*
X126350095Y-38740190D01*
X125873904Y-38311619D02*
X125873904Y-39311619D01*
X125778666Y-38692571D02*
X125492952Y-38311619D01*
X125492952Y-38978285D02*
X125873904Y-38597333D01*
X124921523Y-38311619D02*
X125016761Y-38359238D01*
X125064380Y-38406857D01*
X125112000Y-38502095D01*
X125112000Y-38787809D01*
X125064380Y-38883047D01*
X125016761Y-38930666D01*
X124921523Y-38978285D01*
X124778666Y-38978285D01*
X124683428Y-38930666D01*
X124635809Y-38883047D01*
X124588190Y-38787809D01*
X124588190Y-38502095D01*
X124635809Y-38406857D01*
X124683428Y-38359238D01*
X124778666Y-38311619D01*
X124921523Y-38311619D01*
X123731047Y-38978285D02*
X123731047Y-38311619D01*
X124159619Y-38978285D02*
X124159619Y-38454476D01*
X124112000Y-38359238D01*
X124016761Y-38311619D01*
X123873904Y-38311619D01*
X123778666Y-38359238D01*
X123731047Y-38406857D01*
X123397714Y-38978285D02*
X123016761Y-38978285D01*
X123254857Y-39311619D02*
X123254857Y-38454476D01*
X123207238Y-38359238D01*
X123112000Y-38311619D01*
X123016761Y-38311619D01*
X138373904Y-36661619D02*
X138373904Y-37661619D01*
X137992952Y-37661619D01*
X137897714Y-37614000D01*
X137850095Y-37566380D01*
X137802476Y-37471142D01*
X137802476Y-37328285D01*
X137850095Y-37233047D01*
X137897714Y-37185428D01*
X137992952Y-37137809D01*
X138373904Y-37137809D01*
X137373904Y-36661619D02*
X137373904Y-37328285D01*
X137373904Y-37661619D02*
X137421523Y-37614000D01*
X137373904Y-37566380D01*
X137326285Y-37614000D01*
X137373904Y-37661619D01*
X137373904Y-37566380D01*
X136897714Y-37328285D02*
X136897714Y-36661619D01*
X136897714Y-37233047D02*
X136850095Y-37280666D01*
X136754857Y-37328285D01*
X136612000Y-37328285D01*
X136516761Y-37280666D01*
X136469142Y-37185428D01*
X136469142Y-36661619D01*
X136040571Y-36709238D02*
X135945333Y-36661619D01*
X135754857Y-36661619D01*
X135659619Y-36709238D01*
X135612000Y-36804476D01*
X135612000Y-36852095D01*
X135659619Y-36947333D01*
X135754857Y-36994952D01*
X135897714Y-36994952D01*
X135992952Y-37042571D01*
X136040571Y-37137809D01*
X136040571Y-37185428D01*
X135992952Y-37280666D01*
X135897714Y-37328285D01*
X135754857Y-37328285D01*
X135659619Y-37280666D01*
X134469142Y-37566380D02*
X134421523Y-37614000D01*
X134326285Y-37661619D01*
X134088190Y-37661619D01*
X133992952Y-37614000D01*
X133945333Y-37566380D01*
X133897714Y-37471142D01*
X133897714Y-37375904D01*
X133945333Y-37233047D01*
X134516761Y-36661619D01*
X133897714Y-36661619D01*
X132992952Y-37661619D02*
X133469142Y-37661619D01*
X133516761Y-37185428D01*
X133469142Y-37233047D01*
X133373904Y-37280666D01*
X133135809Y-37280666D01*
X133040571Y-37233047D01*
X132992952Y-37185428D01*
X132945333Y-37090190D01*
X132945333Y-36852095D01*
X132992952Y-36756857D01*
X133040571Y-36709238D01*
X133135809Y-36661619D01*
X133373904Y-36661619D01*
X133469142Y-36709238D01*
X133516761Y-36756857D01*
X132516761Y-37042571D02*
X131754857Y-37042571D01*
X131373904Y-37661619D02*
X130754857Y-37661619D01*
X131088190Y-37280666D01*
X130945333Y-37280666D01*
X130850095Y-37233047D01*
X130802476Y-37185428D01*
X130754857Y-37090190D01*
X130754857Y-36852095D01*
X130802476Y-36756857D01*
X130850095Y-36709238D01*
X130945333Y-36661619D01*
X131231047Y-36661619D01*
X131326285Y-36709238D01*
X131373904Y-36756857D01*
X130373904Y-37566380D02*
X130326285Y-37614000D01*
X130231047Y-37661619D01*
X129992952Y-37661619D01*
X129897714Y-37614000D01*
X129850095Y-37566380D01*
X129802476Y-37471142D01*
X129802476Y-37375904D01*
X129850095Y-37233047D01*
X130421523Y-36661619D01*
X129802476Y-36661619D01*
X141731047Y-35011619D02*
X141731047Y-36011619D01*
X141492952Y-36011619D01*
X141350095Y-35964000D01*
X141254857Y-35868761D01*
X141207238Y-35773523D01*
X141159619Y-35583047D01*
X141159619Y-35440190D01*
X141207238Y-35249714D01*
X141254857Y-35154476D01*
X141350095Y-35059238D01*
X141492952Y-35011619D01*
X141731047Y-35011619D01*
X140350095Y-35059238D02*
X140445333Y-35011619D01*
X140635809Y-35011619D01*
X140731047Y-35059238D01*
X140778666Y-35154476D01*
X140778666Y-35535428D01*
X140731047Y-35630666D01*
X140635809Y-35678285D01*
X140445333Y-35678285D01*
X140350095Y-35630666D01*
X140302476Y-35535428D01*
X140302476Y-35440190D01*
X140778666Y-35344952D01*
X139921523Y-35059238D02*
X139826285Y-35011619D01*
X139635809Y-35011619D01*
X139540571Y-35059238D01*
X139492952Y-35154476D01*
X139492952Y-35202095D01*
X139540571Y-35297333D01*
X139635809Y-35344952D01*
X139778666Y-35344952D01*
X139873904Y-35392571D01*
X139921523Y-35487809D01*
X139921523Y-35535428D01*
X139873904Y-35630666D01*
X139778666Y-35678285D01*
X139635809Y-35678285D01*
X139540571Y-35630666D01*
X139064380Y-35011619D02*
X139064380Y-35678285D01*
X139064380Y-36011619D02*
X139112000Y-35964000D01*
X139064380Y-35916380D01*
X139016761Y-35964000D01*
X139064380Y-36011619D01*
X139064380Y-35916380D01*
X138159619Y-35678285D02*
X138159619Y-34868761D01*
X138207238Y-34773523D01*
X138254857Y-34725904D01*
X138350095Y-34678285D01*
X138492952Y-34678285D01*
X138588190Y-34725904D01*
X138159619Y-35059238D02*
X138254857Y-35011619D01*
X138445333Y-35011619D01*
X138540571Y-35059238D01*
X138588190Y-35106857D01*
X138635809Y-35202095D01*
X138635809Y-35487809D01*
X138588190Y-35583047D01*
X138540571Y-35630666D01*
X138445333Y-35678285D01*
X138254857Y-35678285D01*
X138159619Y-35630666D01*
X137683428Y-35678285D02*
X137683428Y-35011619D01*
X137683428Y-35583047D02*
X137635809Y-35630666D01*
X137540571Y-35678285D01*
X137397714Y-35678285D01*
X137302476Y-35630666D01*
X137254857Y-35535428D01*
X137254857Y-35011619D01*
X136397714Y-35059238D02*
X136492952Y-35011619D01*
X136683428Y-35011619D01*
X136778666Y-35059238D01*
X136826285Y-35154476D01*
X136826285Y-35535428D01*
X136778666Y-35630666D01*
X136683428Y-35678285D01*
X136492952Y-35678285D01*
X136397714Y-35630666D01*
X136350095Y-35535428D01*
X136350095Y-35440190D01*
X136826285Y-35344952D01*
X135492952Y-35011619D02*
X135492952Y-36011619D01*
X135492952Y-35059238D02*
X135588190Y-35011619D01*
X135778666Y-35011619D01*
X135873904Y-35059238D01*
X135921523Y-35106857D01*
X135969142Y-35202095D01*
X135969142Y-35487809D01*
X135921523Y-35583047D01*
X135873904Y-35630666D01*
X135778666Y-35678285D01*
X135588190Y-35678285D01*
X135492952Y-35630666D01*
X134254857Y-35011619D02*
X134254857Y-36011619D01*
X134254857Y-35630666D02*
X134159619Y-35678285D01*
X133969142Y-35678285D01*
X133873904Y-35630666D01*
X133826285Y-35583047D01*
X133778666Y-35487809D01*
X133778666Y-35202095D01*
X133826285Y-35106857D01*
X133873904Y-35059238D01*
X133969142Y-35011619D01*
X134159619Y-35011619D01*
X134254857Y-35059238D01*
X133445333Y-35678285D02*
X133207238Y-35011619D01*
X132969142Y-35678285D02*
X133207238Y-35011619D01*
X133302476Y-34773523D01*
X133350095Y-34725904D01*
X133445333Y-34678285D01*
X131492952Y-35535428D02*
X131350095Y-35487809D01*
X131302476Y-35440190D01*
X131254857Y-35344952D01*
X131254857Y-35202095D01*
X131302476Y-35106857D01*
X131350095Y-35059238D01*
X131445333Y-35011619D01*
X131826285Y-35011619D01*
X131826285Y-36011619D01*
X131492952Y-36011619D01*
X131397714Y-35964000D01*
X131350095Y-35916380D01*
X131302476Y-35821142D01*
X131302476Y-35725904D01*
X131350095Y-35630666D01*
X131397714Y-35583047D01*
X131492952Y-35535428D01*
X131826285Y-35535428D01*
X130826285Y-35011619D02*
X130826285Y-35678285D01*
X130826285Y-36011619D02*
X130873904Y-35964000D01*
X130826285Y-35916380D01*
X130778666Y-35964000D01*
X130826285Y-36011619D01*
X130826285Y-35916380D01*
X129921523Y-35678285D02*
X129921523Y-34868761D01*
X129969142Y-34773523D01*
X130016761Y-34725904D01*
X130112000Y-34678285D01*
X130254857Y-34678285D01*
X130350095Y-34725904D01*
X129921523Y-35059238D02*
X130016761Y-35011619D01*
X130207238Y-35011619D01*
X130302476Y-35059238D01*
X130350095Y-35106857D01*
X130397714Y-35202095D01*
X130397714Y-35487809D01*
X130350095Y-35583047D01*
X130302476Y-35630666D01*
X130207238Y-35678285D01*
X130016761Y-35678285D01*
X129921523Y-35630666D01*
X129445333Y-35011619D02*
X129445333Y-36011619D01*
X129445333Y-35630666D02*
X129350095Y-35678285D01*
X129159619Y-35678285D01*
X129064380Y-35630666D01*
X129016761Y-35583047D01*
X128969142Y-35487809D01*
X128969142Y-35202095D01*
X129016761Y-35106857D01*
X129064380Y-35059238D01*
X129159619Y-35011619D01*
X129350095Y-35011619D01*
X129445333Y-35059238D01*
X128112000Y-35011619D02*
X128112000Y-35535428D01*
X128159619Y-35630666D01*
X128254857Y-35678285D01*
X128445333Y-35678285D01*
X128540571Y-35630666D01*
X128112000Y-35059238D02*
X128207238Y-35011619D01*
X128445333Y-35011619D01*
X128540571Y-35059238D01*
X128588190Y-35154476D01*
X128588190Y-35249714D01*
X128540571Y-35344952D01*
X128445333Y-35392571D01*
X128207238Y-35392571D01*
X128112000Y-35440190D01*
X127683428Y-35059238D02*
X127588190Y-35011619D01*
X127397714Y-35011619D01*
X127302476Y-35059238D01*
X127254857Y-35154476D01*
X127254857Y-35202095D01*
X127302476Y-35297333D01*
X127397714Y-35344952D01*
X127540571Y-35344952D01*
X127635809Y-35392571D01*
X127683428Y-35487809D01*
X127683428Y-35535428D01*
X127635809Y-35630666D01*
X127540571Y-35678285D01*
X127397714Y-35678285D01*
X127302476Y-35630666D01*
X126873904Y-35059238D02*
X126778666Y-35011619D01*
X126588190Y-35011619D01*
X126492952Y-35059238D01*
X126445333Y-35154476D01*
X126445333Y-35202095D01*
X126492952Y-35297333D01*
X126588190Y-35344952D01*
X126731047Y-35344952D01*
X126826285Y-35392571D01*
X126873904Y-35487809D01*
X126873904Y-35535428D01*
X126826285Y-35630666D01*
X126731047Y-35678285D01*
X126588190Y-35678285D01*
X126492952Y-35630666D01*
X146588190Y-45281619D02*
X146016761Y-45281619D01*
X146302476Y-44281619D02*
X146302476Y-45281619D01*
X145683428Y-44281619D02*
X145683428Y-45281619D01*
X145683428Y-44805428D02*
X145112000Y-44805428D01*
X145112000Y-44281619D02*
X145112000Y-45281619D01*
X144635809Y-44281619D02*
X144635809Y-45281619D01*
X144207238Y-44329238D02*
X144064380Y-44281619D01*
X143826285Y-44281619D01*
X143731047Y-44329238D01*
X143683428Y-44376857D01*
X143635809Y-44472095D01*
X143635809Y-44567333D01*
X143683428Y-44662571D01*
X143731047Y-44710190D01*
X143826285Y-44757809D01*
X144016761Y-44805428D01*
X144112000Y-44853047D01*
X144159619Y-44900666D01*
X144207238Y-44995904D01*
X144207238Y-45091142D01*
X144159619Y-45186380D01*
X144112000Y-45234000D01*
X144016761Y-45281619D01*
X143778666Y-45281619D01*
X143635809Y-45234000D01*
X142492952Y-44329238D02*
X142350095Y-44281619D01*
X142112000Y-44281619D01*
X142016761Y-44329238D01*
X141969142Y-44376857D01*
X141921523Y-44472095D01*
X141921523Y-44567333D01*
X141969142Y-44662571D01*
X142016761Y-44710190D01*
X142112000Y-44757809D01*
X142302476Y-44805428D01*
X142397714Y-44853047D01*
X142445333Y-44900666D01*
X142492952Y-44995904D01*
X142492952Y-45091142D01*
X142445333Y-45186380D01*
X142397714Y-45234000D01*
X142302476Y-45281619D01*
X142064380Y-45281619D01*
X141921523Y-45234000D01*
X141492952Y-44281619D02*
X141492952Y-45281619D01*
X141016761Y-44281619D02*
X141016761Y-45281619D01*
X140778666Y-45281619D01*
X140635809Y-45234000D01*
X140540571Y-45138761D01*
X140492952Y-45043523D01*
X140445333Y-44853047D01*
X140445333Y-44710190D01*
X140492952Y-44519714D01*
X140540571Y-44424476D01*
X140635809Y-44329238D01*
X140778666Y-44281619D01*
X141016761Y-44281619D01*
X140016761Y-44805428D02*
X139683428Y-44805428D01*
X139540571Y-44281619D02*
X140016761Y-44281619D01*
X140016761Y-45281619D01*
X139540571Y-45281619D01*
X138016761Y-44805428D02*
X138350095Y-44805428D01*
X138350095Y-44281619D02*
X138350095Y-45281619D01*
X137873904Y-45281619D01*
X137540571Y-44567333D02*
X137064380Y-44567333D01*
X137635809Y-44281619D02*
X137302476Y-45281619D01*
X136969142Y-44281619D01*
X136064380Y-44376857D02*
X136112000Y-44329238D01*
X136254857Y-44281619D01*
X136350095Y-44281619D01*
X136492952Y-44329238D01*
X136588190Y-44424476D01*
X136635809Y-44519714D01*
X136683428Y-44710190D01*
X136683428Y-44853047D01*
X136635809Y-45043523D01*
X136588190Y-45138761D01*
X136492952Y-45234000D01*
X136350095Y-45281619D01*
X136254857Y-45281619D01*
X136112000Y-45234000D01*
X136064380Y-45186380D01*
X135635809Y-44281619D02*
X135635809Y-45281619D01*
X135159619Y-44281619D02*
X135159619Y-45281619D01*
X134588190Y-44281619D01*
X134588190Y-45281619D01*
X133588190Y-45234000D02*
X133683428Y-45281619D01*
X133826285Y-45281619D01*
X133969142Y-45234000D01*
X134064380Y-45138761D01*
X134112000Y-45043523D01*
X134159619Y-44853047D01*
X134159619Y-44710190D01*
X134112000Y-44519714D01*
X134064380Y-44424476D01*
X133969142Y-44329238D01*
X133826285Y-44281619D01*
X133731047Y-44281619D01*
X133588190Y-44329238D01*
X133540571Y-44376857D01*
X133540571Y-44710190D01*
X133731047Y-44710190D01*
X132016761Y-44805428D02*
X132350095Y-44805428D01*
X132350095Y-44281619D02*
X132350095Y-45281619D01*
X131873904Y-45281619D01*
X130921523Y-44281619D02*
X131254857Y-44757809D01*
X131492952Y-44281619D02*
X131492952Y-45281619D01*
X131112000Y-45281619D01*
X131016761Y-45234000D01*
X130969142Y-45186380D01*
X130921523Y-45091142D01*
X130921523Y-44948285D01*
X130969142Y-44853047D01*
X131016761Y-44805428D01*
X131112000Y-44757809D01*
X131492952Y-44757809D01*
X130302476Y-45281619D02*
X130112000Y-45281619D01*
X130016761Y-45234000D01*
X129921523Y-45138761D01*
X129873904Y-44948285D01*
X129873904Y-44614952D01*
X129921523Y-44424476D01*
X130016761Y-44329238D01*
X130112000Y-44281619D01*
X130302476Y-44281619D01*
X130397714Y-44329238D01*
X130492952Y-44424476D01*
X130540571Y-44614952D01*
X130540571Y-44948285D01*
X130492952Y-45138761D01*
X130397714Y-45234000D01*
X130302476Y-45281619D01*
X129445333Y-44281619D02*
X129445333Y-45281619D01*
X128873904Y-44281619D01*
X128873904Y-45281619D01*
X128540571Y-45281619D02*
X127969142Y-45281619D01*
X128254857Y-44281619D02*
X128254857Y-45281619D01*
X126683428Y-45281619D02*
X126492952Y-45281619D01*
X126397714Y-45234000D01*
X126302476Y-45138761D01*
X126254857Y-44948285D01*
X126254857Y-44614952D01*
X126302476Y-44424476D01*
X126397714Y-44329238D01*
X126492952Y-44281619D01*
X126683428Y-44281619D01*
X126778666Y-44329238D01*
X126873904Y-44424476D01*
X126921523Y-44614952D01*
X126921523Y-44948285D01*
X126873904Y-45138761D01*
X126778666Y-45234000D01*
X126683428Y-45281619D01*
X125492952Y-44805428D02*
X125826285Y-44805428D01*
X125826285Y-44281619D02*
X125826285Y-45281619D01*
X125350095Y-45281619D01*
X124207238Y-44281619D02*
X124207238Y-45281619D01*
X123635809Y-44281619D01*
X123635809Y-45281619D01*
X123159619Y-44805428D02*
X122826285Y-44805428D01*
X122683428Y-44281619D02*
X123159619Y-44281619D01*
X123159619Y-45281619D01*
X122683428Y-45281619D01*
X122302476Y-44329238D02*
X122159619Y-44281619D01*
X121921523Y-44281619D01*
X121826285Y-44329238D01*
X121778666Y-44376857D01*
X121731047Y-44472095D01*
X121731047Y-44567333D01*
X121778666Y-44662571D01*
X121826285Y-44710190D01*
X121921523Y-44757809D01*
X122112000Y-44805428D01*
X122207238Y-44853047D01*
X122254857Y-44900666D01*
X122302476Y-44995904D01*
X122302476Y-45091142D01*
X122254857Y-45186380D01*
X122207238Y-45234000D01*
X122112000Y-45281619D01*
X121873904Y-45281619D01*
X121731047Y-45234000D01*
X102616095Y-69905619D02*
X102663714Y-69858000D01*
X102758952Y-69810380D01*
X102997047Y-69810380D01*
X103092285Y-69858000D01*
X103139904Y-69905619D01*
X103187523Y-70000857D01*
X103187523Y-70096095D01*
X103139904Y-70238952D01*
X102568476Y-70810380D01*
X103187523Y-70810380D01*
X104044666Y-70143714D02*
X104044666Y-70810380D01*
X103806571Y-69762761D02*
X103568476Y-70477047D01*
X104187523Y-70477047D01*
X165131714Y-70810380D02*
X164560285Y-70810380D01*
X164846000Y-70810380D02*
X164846000Y-69810380D01*
X164750761Y-69953238D01*
X164655523Y-70048476D01*
X164560285Y-70096095D01*
D11*
X100016000Y-58868000D02*
X101346000Y-58868000D01*
X100016000Y-60198000D02*
X100016000Y-58868000D01*
X100016000Y-61468000D02*
X102676000Y-61468000D01*
X102676000Y-61468000D02*
X102676000Y-66608000D01*
X100016000Y-61468000D02*
X100016000Y-66608000D01*
X100016000Y-66608000D02*
X102676000Y-66608000D01*
X165548000Y-58868000D02*
X166878000Y-58868000D01*
X165548000Y-60198000D02*
X165548000Y-58868000D01*
X165548000Y-61468000D02*
X168208000Y-61468000D01*
X168208000Y-61468000D02*
X168208000Y-66608000D01*
X165548000Y-61468000D02*
X165548000Y-66608000D01*
X165548000Y-66608000D02*
X168208000Y-66608000D01*
X103572000Y-67624000D02*
X103572000Y-66294000D01*
X104902000Y-67624000D02*
X103572000Y-67624000D01*
X106172000Y-67624000D02*
X106172000Y-64964000D01*
X106172000Y-64964000D02*
X164652000Y-64964000D01*
X106172000Y-67624000D02*
X164652000Y-67624000D01*
X164652000Y-67624000D02*
X164652000Y-64964000D01*
%LPC*%
D12*
X160422000Y-58266000D03*
X159622000Y-58266000D03*
X158822000Y-58266000D03*
X158022000Y-58266000D03*
X157222000Y-58266000D03*
X156422000Y-58266000D03*
X155622000Y-58266000D03*
X154822000Y-58266000D03*
X154822000Y-56066000D03*
X155622000Y-56066000D03*
X156422000Y-56066000D03*
X157222000Y-56066000D03*
X160422000Y-56066000D03*
X159622000Y-56066000D03*
X158822000Y-56066000D03*
X158022000Y-56066000D03*
X107822000Y-56066000D03*
X108622000Y-56066000D03*
X109422000Y-56066000D03*
X110222000Y-56066000D03*
X111022000Y-56066000D03*
X111822000Y-56066000D03*
X112622000Y-56066000D03*
X113422000Y-56066000D03*
X113422000Y-58266000D03*
X112622000Y-58266000D03*
X111822000Y-58266000D03*
X111022000Y-58266000D03*
X107822000Y-58266000D03*
X108622000Y-58266000D03*
X109422000Y-58266000D03*
X110222000Y-58266000D03*
D13*
X104902000Y-48036000D03*
X107442000Y-48036000D03*
X109982000Y-48036000D03*
X112522000Y-48036000D03*
X115062000Y-48036000D03*
X117602000Y-48036000D03*
X120142000Y-48036000D03*
X122682000Y-48036000D03*
X125222000Y-48036000D03*
X127762000Y-48036000D03*
X130302000Y-48036000D03*
X132842000Y-48036000D03*
X135382000Y-48036000D03*
X137922000Y-48036000D03*
X140462000Y-48036000D03*
X143002000Y-48036000D03*
X145542000Y-48036000D03*
X148082000Y-48036000D03*
X150622000Y-48036000D03*
X153162000Y-48036000D03*
X155702000Y-48036000D03*
X158242000Y-48036000D03*
X160782000Y-48036000D03*
D14*
X163322000Y-48036000D03*
X101346000Y-54132000D03*
D13*
X101346000Y-51592000D03*
X101346000Y-49052000D03*
D14*
X166878000Y-54132000D03*
D13*
X166878000Y-51592000D03*
X166878000Y-49052000D03*
X101346000Y-65278000D03*
X101346000Y-62738000D03*
D14*
X101346000Y-60198000D03*
D13*
X166878000Y-65278000D03*
X166878000Y-62738000D03*
D14*
X166878000Y-60198000D03*
D13*
X163322000Y-66294000D03*
X160782000Y-66294000D03*
X158242000Y-66294000D03*
X155702000Y-66294000D03*
X153162000Y-66294000D03*
X150622000Y-66294000D03*
X148082000Y-66294000D03*
X145542000Y-66294000D03*
X143002000Y-66294000D03*
X140462000Y-66294000D03*
X137922000Y-66294000D03*
X135382000Y-66294000D03*
X132842000Y-66294000D03*
X130302000Y-66294000D03*
X127762000Y-66294000D03*
X125222000Y-66294000D03*
X122682000Y-66294000D03*
X120142000Y-66294000D03*
X117602000Y-66294000D03*
X115062000Y-66294000D03*
X112522000Y-66294000D03*
X109982000Y-66294000D03*
X107442000Y-66294000D03*
D14*
X104902000Y-66294000D03*
D15*
X104902000Y-77216000D03*
X107442000Y-77216000D03*
X109982000Y-77216000D03*
X112522000Y-77216000D03*
X115062000Y-77216000D03*
X117602000Y-77216000D03*
X120142000Y-77216000D03*
X122682000Y-77216000D03*
X125222000Y-77216000D03*
X127762000Y-77216000D03*
X130302000Y-77216000D03*
X132842000Y-77216000D03*
X135382000Y-77216000D03*
X137922000Y-77216000D03*
X140462000Y-77216000D03*
X143002000Y-77216000D03*
X145542000Y-77216000D03*
X148082000Y-77216000D03*
X150622000Y-77216000D03*
X153162000Y-77216000D03*
X155702000Y-77216000D03*
X158242000Y-77216000D03*
X160782000Y-77216000D03*
X163322000Y-77216000D03*
D14*
X104902000Y-60198000D03*
D13*
X104902000Y-62738000D03*
X107442000Y-60198000D03*
X107442000Y-62738000D03*
X109982000Y-60198000D03*
X109982000Y-62738000D03*
X112522000Y-60198000D03*
X112522000Y-62738000D03*
X115062000Y-60198000D03*
X115062000Y-62738000D03*
X117602000Y-60198000D03*
X117602000Y-62738000D03*
X120142000Y-60198000D03*
X120142000Y-62738000D03*
X122682000Y-60198000D03*
X122682000Y-62738000D03*
X125222000Y-60198000D03*
X125222000Y-62738000D03*
X127762000Y-60198000D03*
X127762000Y-62738000D03*
X130302000Y-60198000D03*
X130302000Y-62738000D03*
X132842000Y-60198000D03*
X132842000Y-62738000D03*
X135382000Y-60198000D03*
X135382000Y-62738000D03*
X137922000Y-60198000D03*
X137922000Y-62738000D03*
X140462000Y-60198000D03*
X140462000Y-62738000D03*
X143002000Y-60198000D03*
X143002000Y-62738000D03*
X145542000Y-60198000D03*
X145542000Y-62738000D03*
X148082000Y-60198000D03*
X148082000Y-62738000D03*
X150622000Y-60198000D03*
X150622000Y-62738000D03*
X153162000Y-60198000D03*
X153162000Y-62738000D03*
X155702000Y-60198000D03*
X155702000Y-62738000D03*
X158242000Y-60198000D03*
X158242000Y-62738000D03*
X160782000Y-60198000D03*
X160782000Y-62738000D03*
X163322000Y-60198000D03*
X163322000Y-62738000D03*
M02*
