M48
; DRILL file {KiCad 5.1.10-88a1d61d58~88~ubuntu20.04.1} date Wed Jun 23 17:02:28 2021
; FORMAT={-:-/ absolute / metric / decimal}
; #@! TF.CreationDate,2021-06-23T17:02:28-05:00
; #@! TF.GenerationSoftware,Kicad,Pcbnew,5.1.10-88a1d61d58~88~ubuntu20.04.1
; #@! TF.FileFunction,NonPlated,1,2,NPTH
FMAT,2
METRIC
T1C0.500
%
G90
G05
T1
X107.822Y-56.066
X107.822Y-58.266
X108.622Y-56.066
X108.622Y-58.266
X109.422Y-56.066
X109.422Y-58.266
X110.222Y-56.066
X110.222Y-58.266
X111.022Y-56.066
X111.022Y-58.266
X111.822Y-56.066
X111.822Y-58.266
X112.622Y-56.066
X112.622Y-58.266
X113.422Y-56.066
X113.422Y-58.266
X154.822Y-56.066
X154.822Y-58.266
X155.622Y-56.066
X155.622Y-58.266
X156.422Y-56.066
X156.422Y-58.266
X157.222Y-56.066
X157.222Y-58.266
X158.022Y-56.066
X158.022Y-58.266
X158.822Y-56.066
X158.822Y-58.266
X159.622Y-56.066
X159.622Y-58.266
X160.422Y-56.066
X160.422Y-58.266
T0
M30
