%TF.GenerationSoftware,KiCad,Pcbnew,5.1.10-88a1d61d58~88~ubuntu20.04.1*%
%TF.CreationDate,2021-06-23T17:02:21-05:00*%
%TF.ProjectId,nes-expansion-port,6e65732d-6578-4706-916e-73696f6e2d70,rev?*%
%TF.SameCoordinates,Original*%
%TF.FileFunction,Profile,NP*%
%FSLAX46Y46*%
G04 Gerber Fmt 4.6, Leading zero omitted, Abs format (unit mm)*
G04 Created by KiCad (PCBNEW 5.1.10-88a1d61d58~88~ubuntu20.04.1) date 2021-06-23 17:02:21*
%MOMM*%
%LPD*%
G01*
G04 APERTURE LIST*
%TA.AperFunction,Profile*%
%ADD10C,0.050000*%
%TD*%
G04 APERTURE END LIST*
D10*
X113422000Y-58166000D02*
X113422000Y-56166000D01*
X160422000Y-58166000D02*
X168402000Y-58166000D01*
X154822000Y-56164000D02*
X113422000Y-56164000D01*
X160422000Y-58166000D02*
X160422000Y-56166000D01*
X154822000Y-58166000D02*
X154822000Y-56166000D01*
X107822000Y-56164000D02*
X99822000Y-56164000D01*
X113422000Y-58166000D02*
X154822000Y-58166000D01*
X107822000Y-58166000D02*
X107822000Y-56166000D01*
X166624000Y-29875000D02*
X101600000Y-29875000D01*
X168910000Y-47274000D02*
X168910000Y-55656000D01*
X100457000Y-31018000D02*
X101600000Y-29875000D01*
X100457000Y-31018000D02*
X100457000Y-46131000D01*
X167767000Y-31018000D02*
X167767000Y-46131000D01*
X167767000Y-46131000D02*
X168910000Y-47274000D01*
X168402000Y-56164000D02*
X160422000Y-56164000D01*
X99314000Y-47274000D02*
X100457000Y-46131000D01*
X99314000Y-55656000D02*
X99314000Y-47274000D01*
X167767000Y-31018000D02*
X166624000Y-29875000D01*
X99822000Y-56164000D02*
X99314000Y-55656000D01*
X168910000Y-55656000D02*
X168402000Y-56164000D01*
X168402000Y-58166000D02*
X168910000Y-58674000D01*
X99314000Y-58674000D02*
X99822000Y-58166000D01*
X167767000Y-83312000D02*
X167767000Y-68199000D01*
X168910000Y-67056000D02*
X167767000Y-68199000D01*
X167767000Y-83312000D02*
X166624000Y-84455000D01*
X100457000Y-83312000D02*
X101600000Y-84455000D01*
X100457000Y-83312000D02*
X100457000Y-68199000D01*
X168910000Y-58674000D02*
X168910000Y-67056000D01*
X99822000Y-58166000D02*
X107822000Y-58166000D01*
X99314000Y-67056000D02*
X99314000Y-58674000D01*
X100457000Y-68199000D02*
X99314000Y-67056000D01*
X101600000Y-84455000D02*
X166624000Y-84455000D01*
M02*
