M48
; DRILL file {KiCad 5.1.10-88a1d61d58~88~ubuntu20.04.1} date Wed Jun 23 17:02:28 2021
; FORMAT={-:-/ absolute / metric / decimal}
; #@! TF.CreationDate,2021-06-23T17:02:28-05:00
; #@! TF.GenerationSoftware,Kicad,Pcbnew,5.1.10-88a1d61d58~88~ubuntu20.04.1
; #@! TF.FileFunction,Plated,1,2,PTH
FMAT,2
METRIC
T1C1.000
%
G90
G05
T1
X101.346Y-49.052
X101.346Y-51.592
X101.346Y-54.132
X101.346Y-60.198
X101.346Y-62.738
X101.346Y-65.278
X104.902Y-48.036
X104.902Y-60.198
X104.902Y-62.738
X104.902Y-66.294
X107.442Y-48.036
X107.442Y-60.198
X107.442Y-62.738
X107.442Y-66.294
X109.982Y-48.036
X109.982Y-60.198
X109.982Y-62.738
X109.982Y-66.294
X112.522Y-48.036
X112.522Y-60.198
X112.522Y-62.738
X112.522Y-66.294
X115.062Y-48.036
X115.062Y-60.198
X115.062Y-62.738
X115.062Y-66.294
X117.602Y-48.036
X117.602Y-60.198
X117.602Y-62.738
X117.602Y-66.294
X120.142Y-48.036
X120.142Y-60.198
X120.142Y-62.738
X120.142Y-66.294
X122.682Y-48.036
X122.682Y-60.198
X122.682Y-62.738
X122.682Y-66.294
X125.222Y-48.036
X125.222Y-60.198
X125.222Y-62.738
X125.222Y-66.294
X127.762Y-48.036
X127.762Y-60.198
X127.762Y-62.738
X127.762Y-66.294
X130.302Y-48.036
X130.302Y-60.198
X130.302Y-62.738
X130.302Y-66.294
X132.842Y-48.036
X132.842Y-60.198
X132.842Y-62.738
X132.842Y-66.294
X135.382Y-48.036
X135.382Y-60.198
X135.382Y-62.738
X135.382Y-66.294
X137.922Y-48.036
X137.922Y-60.198
X137.922Y-62.738
X137.922Y-66.294
X140.462Y-48.036
X140.462Y-60.198
X140.462Y-62.738
X140.462Y-66.294
X143.002Y-48.036
X143.002Y-60.198
X143.002Y-62.738
X143.002Y-66.294
X145.542Y-48.036
X145.542Y-60.198
X145.542Y-62.738
X145.542Y-66.294
X148.082Y-48.036
X148.082Y-60.198
X148.082Y-62.738
X148.082Y-66.294
X150.622Y-48.036
X150.622Y-60.198
X150.622Y-62.738
X150.622Y-66.294
X153.162Y-48.036
X153.162Y-60.198
X153.162Y-62.738
X153.162Y-66.294
X155.702Y-48.036
X155.702Y-60.198
X155.702Y-62.738
X155.702Y-66.294
X158.242Y-48.036
X158.242Y-60.198
X158.242Y-62.738
X158.242Y-66.294
X160.782Y-48.036
X160.782Y-60.198
X160.782Y-62.738
X160.782Y-66.294
X163.322Y-48.036
X163.322Y-60.198
X163.322Y-62.738
X163.322Y-66.294
X166.878Y-49.052
X166.878Y-51.592
X166.878Y-54.132
X166.878Y-60.198
X166.878Y-62.738
X166.878Y-65.278
T0
M30
