%TF.GenerationSoftware,KiCad,Pcbnew,5.1.10-88a1d61d58~88~ubuntu20.04.1*%
%TF.CreationDate,2021-06-23T17:02:21-05:00*%
%TF.ProjectId,nes-expansion-port,6e65732d-6578-4706-916e-73696f6e2d70,rev?*%
%TF.SameCoordinates,Original*%
%TF.FileFunction,Copper,L2,Bot*%
%TF.FilePolarity,Positive*%
%FSLAX46Y46*%
G04 Gerber Fmt 4.6, Leading zero omitted, Abs format (unit mm)*
G04 Created by KiCad (PCBNEW 5.1.10-88a1d61d58~88~ubuntu20.04.1) date 2021-06-23 17:02:21*
%MOMM*%
%LPD*%
G01*
G04 APERTURE LIST*
%TA.AperFunction,ComponentPad*%
%ADD10O,1.700000X1.700000*%
%TD*%
%TA.AperFunction,ComponentPad*%
%ADD11R,1.700000X1.700000*%
%TD*%
%TA.AperFunction,SMDPad,CuDef*%
%ADD12R,1.524000X12.000000*%
%TD*%
%TA.AperFunction,Conductor*%
%ADD13C,0.250000*%
%TD*%
G04 APERTURE END LIST*
D10*
X104902000Y-48036000D03*
X107442000Y-48036000D03*
X109982000Y-48036000D03*
X112522000Y-48036000D03*
X115062000Y-48036000D03*
X117602000Y-48036000D03*
X120142000Y-48036000D03*
X122682000Y-48036000D03*
X125222000Y-48036000D03*
X127762000Y-48036000D03*
X130302000Y-48036000D03*
X132842000Y-48036000D03*
X135382000Y-48036000D03*
X137922000Y-48036000D03*
X140462000Y-48036000D03*
X143002000Y-48036000D03*
X145542000Y-48036000D03*
X148082000Y-48036000D03*
X150622000Y-48036000D03*
X153162000Y-48036000D03*
X155702000Y-48036000D03*
X158242000Y-48036000D03*
X160782000Y-48036000D03*
D11*
X163322000Y-48036000D03*
X101346000Y-54132000D03*
D10*
X101346000Y-51592000D03*
X101346000Y-49052000D03*
D11*
X166878000Y-54132000D03*
D10*
X166878000Y-51592000D03*
X166878000Y-49052000D03*
D12*
X104902000Y-37114000D03*
X107442000Y-37114000D03*
X109982000Y-37114000D03*
X112522000Y-37114000D03*
X115062000Y-37114000D03*
X117602000Y-37114000D03*
X120142000Y-37114000D03*
X122682000Y-37114000D03*
X125222000Y-37114000D03*
X127762000Y-37114000D03*
X130302000Y-37114000D03*
X132842000Y-37114000D03*
X135382000Y-37114000D03*
X137922000Y-37114000D03*
X140462000Y-37114000D03*
X143002000Y-37114000D03*
X145542000Y-37114000D03*
X148082000Y-37114000D03*
X150622000Y-37114000D03*
X153162000Y-37114000D03*
X155702000Y-37114000D03*
X158242000Y-37114000D03*
X160782000Y-37114000D03*
X163322000Y-37114000D03*
D10*
X101346000Y-65278000D03*
X101346000Y-62738000D03*
D11*
X101346000Y-60198000D03*
D10*
X166878000Y-65278000D03*
X166878000Y-62738000D03*
D11*
X166878000Y-60198000D03*
D10*
X163322000Y-66294000D03*
X160782000Y-66294000D03*
X158242000Y-66294000D03*
X155702000Y-66294000D03*
X153162000Y-66294000D03*
X150622000Y-66294000D03*
X148082000Y-66294000D03*
X145542000Y-66294000D03*
X143002000Y-66294000D03*
X140462000Y-66294000D03*
X137922000Y-66294000D03*
X135382000Y-66294000D03*
X132842000Y-66294000D03*
X130302000Y-66294000D03*
X127762000Y-66294000D03*
X125222000Y-66294000D03*
X122682000Y-66294000D03*
X120142000Y-66294000D03*
X117602000Y-66294000D03*
X115062000Y-66294000D03*
X112522000Y-66294000D03*
X109982000Y-66294000D03*
X107442000Y-66294000D03*
D11*
X104902000Y-66294000D03*
X104902000Y-60198000D03*
D10*
X104902000Y-62738000D03*
X107442000Y-60198000D03*
X107442000Y-62738000D03*
X109982000Y-60198000D03*
X109982000Y-62738000D03*
X112522000Y-60198000D03*
X112522000Y-62738000D03*
X115062000Y-60198000D03*
X115062000Y-62738000D03*
X117602000Y-60198000D03*
X117602000Y-62738000D03*
X120142000Y-60198000D03*
X120142000Y-62738000D03*
X122682000Y-60198000D03*
X122682000Y-62738000D03*
X125222000Y-60198000D03*
X125222000Y-62738000D03*
X127762000Y-60198000D03*
X127762000Y-62738000D03*
X130302000Y-60198000D03*
X130302000Y-62738000D03*
X132842000Y-60198000D03*
X132842000Y-62738000D03*
X135382000Y-60198000D03*
X135382000Y-62738000D03*
X137922000Y-60198000D03*
X137922000Y-62738000D03*
X140462000Y-60198000D03*
X140462000Y-62738000D03*
X143002000Y-60198000D03*
X143002000Y-62738000D03*
X145542000Y-60198000D03*
X145542000Y-62738000D03*
X148082000Y-60198000D03*
X148082000Y-62738000D03*
X150622000Y-60198000D03*
X150622000Y-62738000D03*
X153162000Y-60198000D03*
X153162000Y-62738000D03*
X155702000Y-60198000D03*
X155702000Y-62738000D03*
X158242000Y-60198000D03*
X158242000Y-62738000D03*
X160782000Y-60198000D03*
X160782000Y-62738000D03*
X163322000Y-60198000D03*
X163322000Y-62738000D03*
D13*
X163322000Y-37114000D02*
X163322000Y-48036000D01*
X104902000Y-66294000D02*
X103124000Y-64516000D01*
X103124000Y-61976000D02*
X104902000Y-60198000D01*
X103124000Y-64516000D02*
X103124000Y-61976000D01*
X160782000Y-37114000D02*
X160782000Y-48036000D01*
X106172000Y-61468000D02*
X107442000Y-60198000D01*
X106172000Y-65024000D02*
X106172000Y-61468000D01*
X107442000Y-66294000D02*
X106172000Y-65024000D01*
X109982000Y-66294000D02*
X108712000Y-65024000D01*
X108712000Y-61468000D02*
X109982000Y-60198000D01*
X108712000Y-65024000D02*
X108712000Y-61468000D01*
X158242000Y-37114000D02*
X158242000Y-48036000D01*
X112522000Y-66294000D02*
X111252000Y-65024000D01*
X111252000Y-61468000D02*
X112522000Y-60198000D01*
X111252000Y-65024000D02*
X111252000Y-61468000D01*
X155702000Y-48036000D02*
X155702000Y-37114000D01*
X115062000Y-66294000D02*
X113792000Y-65024000D01*
X113792000Y-61468000D02*
X115062000Y-60198000D01*
X113792000Y-65024000D02*
X113792000Y-61468000D01*
X153162000Y-37114000D02*
X153162000Y-48036000D01*
X117602000Y-66294000D02*
X116332000Y-65024000D01*
X116332000Y-61468000D02*
X117602000Y-60198000D01*
X116332000Y-65024000D02*
X116332000Y-61468000D01*
X150622000Y-48036000D02*
X150622000Y-37114000D01*
X120142000Y-66294000D02*
X118872000Y-65024000D01*
X118872000Y-61468000D02*
X120142000Y-60198000D01*
X118872000Y-65024000D02*
X118872000Y-61468000D01*
X148082000Y-37114000D02*
X148082000Y-48036000D01*
X122682000Y-66294000D02*
X121412000Y-65024000D01*
X121412000Y-61468000D02*
X122682000Y-60198000D01*
X121412000Y-65024000D02*
X121412000Y-61468000D01*
X145542000Y-48036000D02*
X145542000Y-37114000D01*
X125222000Y-66294000D02*
X123952000Y-65024000D01*
X123952000Y-61468000D02*
X125222000Y-60198000D01*
X123952000Y-65024000D02*
X123952000Y-61468000D01*
X143002000Y-37114000D02*
X143002000Y-48036000D01*
X126492000Y-61468000D02*
X127762000Y-60198000D01*
X126492000Y-65024000D02*
X126492000Y-61468000D01*
X127762000Y-66294000D02*
X126492000Y-65024000D01*
X140462000Y-48036000D02*
X140462000Y-37114000D01*
X129032000Y-65024000D02*
X129032000Y-61468000D01*
X130302000Y-66294000D02*
X129032000Y-65024000D01*
X129032000Y-61468000D02*
X130302000Y-60198000D01*
X137922000Y-37114000D02*
X137922000Y-48036000D01*
X131572000Y-65024000D02*
X131572000Y-61468000D01*
X132842000Y-66294000D02*
X131572000Y-65024000D01*
X131572000Y-61468000D02*
X132842000Y-60198000D01*
X135382000Y-48036000D02*
X135382000Y-37114000D01*
X134112000Y-65024000D02*
X134112000Y-61468000D01*
X134112000Y-61468000D02*
X135382000Y-60198000D01*
X135382000Y-66294000D02*
X134112000Y-65024000D01*
X132842000Y-37114000D02*
X132842000Y-48036000D01*
X136652000Y-61468000D02*
X137922000Y-60198000D01*
X137922000Y-66294000D02*
X136652000Y-65024000D01*
X136652000Y-65024000D02*
X136652000Y-61468000D01*
X130302000Y-48036000D02*
X130302000Y-37114000D01*
X139192000Y-61468000D02*
X140462000Y-60198000D01*
X139192000Y-65024000D02*
X139192000Y-61468000D01*
X140462000Y-66294000D02*
X139192000Y-65024000D01*
X127762000Y-48036000D02*
X127762000Y-37114000D01*
X143002000Y-66294000D02*
X141732000Y-65024000D01*
X141732000Y-61468000D02*
X143002000Y-60198000D01*
X141732000Y-65024000D02*
X141732000Y-61468000D01*
X125222000Y-37114000D02*
X125222000Y-48036000D01*
X144272000Y-61468000D02*
X145542000Y-60198000D01*
X144272000Y-65024000D02*
X144272000Y-61468000D01*
X145542000Y-66294000D02*
X144272000Y-65024000D01*
X122682000Y-48036000D02*
X122682000Y-37114000D01*
X146812000Y-65024000D02*
X146812000Y-61468000D01*
X148082000Y-66294000D02*
X146812000Y-65024000D01*
X146812000Y-61468000D02*
X148082000Y-60198000D01*
X120142000Y-37114000D02*
X120142000Y-48036000D01*
X149352000Y-65024000D02*
X149352000Y-61468000D01*
X150622000Y-66294000D02*
X149352000Y-65024000D01*
X149352000Y-61468000D02*
X150622000Y-60198000D01*
X117602000Y-48036000D02*
X117602000Y-37114000D01*
X151892000Y-65024000D02*
X151892000Y-61468000D01*
X151892000Y-61468000D02*
X153162000Y-60198000D01*
X153162000Y-66294000D02*
X151892000Y-65024000D01*
X115062000Y-37114000D02*
X115062000Y-48036000D01*
X154432000Y-61468000D02*
X155702000Y-60198000D01*
X155702000Y-66294000D02*
X154432000Y-65024000D01*
X154432000Y-65024000D02*
X154432000Y-61468000D01*
X112522000Y-48036000D02*
X112522000Y-37114000D01*
X156972000Y-61468000D02*
X158242000Y-60198000D01*
X156972000Y-65024000D02*
X156972000Y-61468000D01*
X158242000Y-66294000D02*
X156972000Y-65024000D01*
X109982000Y-37114000D02*
X109982000Y-48036000D01*
X159512000Y-61468000D02*
X160782000Y-60198000D01*
X160782000Y-66294000D02*
X159512000Y-65024000D01*
X159512000Y-65024000D02*
X159512000Y-61468000D01*
X107442000Y-48036000D02*
X107442000Y-37114000D01*
X162052000Y-61468000D02*
X163322000Y-60198000D01*
X163322000Y-66294000D02*
X162052000Y-65024000D01*
X162052000Y-65024000D02*
X162052000Y-61468000D01*
X104902000Y-37114000D02*
X104902000Y-48036000D01*
M02*
